<svg xmlns="http://www.w3.org/2000/svg" width="352.05743408203125" height="328.5140380859375" viewBox="-170.41671752929688 -118.29906463623047 352.05743408203125 328.5140380859375"><title>Neo4j Graph Visualization</title><desc>Created using Neo4j (http://www.neo4j.com/)</desc><g class="layer relationships"><g class="relationship" transform="translate(100.24950600815184 -54.94406728693072) rotate(489.867230328513)"><path class="b-outline" fill="#A5ABB6" stroke="none" d="M 25 0.5 L 47.55065931234378 0.5 L 47.55065931234378 -0.5 L 25 -0.5 Z M 93.11315931234378 0.5 L 115.66381862468756 0.5 L 115.66381862468756 3.5 L 122.66381862468756 0 L 115.66381862468756 -3.5 L 115.66381862468756 -0.5 L 93.11315931234378 -0.5 Z"/><text text-anchor="middle" pointer-events="none" font-size="8px" fill="#000000" x="70.33190931234378" y="3" transform="rotate(180 70.33190931234378 0)" font-family="Helvetica Neue, Helvetica, Arial, sans-serif">ACTED_IN</text></g><g class="relationship" transform="translate(152.64069429586678 49.15863169834261) rotate(536.4067195722571)"><path class="b-outline" fill="#A5ABB6" stroke="none" d="M 25 0.5 L 52.280747280875474 0.5 L 52.280747280875474 -0.5 L 25 -0.5 Z M 88.05418478087547 0.5 L 115.33493206175095 0.5 L 115.33493206175095 3.5 L 122.33493206175095 0 L 115.33493206175095 -3.5 L 115.33493206175095 -0.5 L 88.05418478087547 -0.5 Z"/><text text-anchor="middle" pointer-events="none" font-size="8px" fill="#000000" x="70.16746603087547" y="3" transform="rotate(180 70.16746603087547 0)" font-family="Helvetica Neue, Helvetica, Arial, sans-serif">WROTE</text></g><g class="relationship" transform="translate(-4.205642372107223 -89.2990680466446) rotate(446.20332893737003)"><path class="b-outline" fill="#A5ABB6" stroke="none" d="M 25 0.5 L 47.72702041122845 0.5 L 47.72702041122845 -0.5 L 25 -0.5 Z M 93.28952041122845 0.5 L 116.0165408224569 0.5 L 116.0165408224569 3.5 L 123.0165408224569 0 L 116.0165408224569 -3.5 L 116.0165408224569 -0.5 L 93.28952041122845 -0.5 Z"/><text text-anchor="middle" pointer-events="none" font-size="8px" fill="#000000" x="70.50827041122845" y="3" font-family="Helvetica Neue, Helvetica, Arial, sans-serif">ACTED_IN</text></g><g class="relationship" transform="translate(-99.99906857339178 -45.587387013425264) rotate(404.55862763914854)"><path class="b-outline" fill="#A5ABB6" stroke="none" d="M 25 0.5 L 47.81671977076563 0.5 L 47.81671977076563 -0.5 L 25 -0.5 Z M 93.37921977076563 0.5 L 116.19593954153126 0.5 L 116.19593954153126 3.5 L 123.19593954153126 0 L 116.19593954153126 -3.5 L 116.19593954153126 -0.5 L 93.37921977076563 -0.5 Z"/><text text-anchor="middle" pointer-events="none" font-size="8px" fill="#000000" x="70.59796977076563" y="3" font-family="Helvetica Neue, Helvetica, Arial, sans-serif">ACTED_IN</text></g><g class="relationship" transform="translate(-141.4167208623461 66.31693472973193) rotate(356.91460403765495)"><path class="b-outline" fill="#A5ABB6" stroke="none" d="M 25 0.5 L 52.226054193174164 0.5 L 52.226054193174164 -0.5 L 25 -0.5 Z M 87.99949169317416 0.5 L 115.22554588634833 0.5 L 115.22554588634833 3.5 L 122.22554588634833 0 L 115.22554588634833 -3.5 L 115.22554588634833 -0.5 L 87.99949169317416 -0.5 Z"/><text text-anchor="middle" pointer-events="none" font-size="8px" fill="#000000" x="70.11277294317416" y="3" font-family="Helvetica Neue, Helvetica, Arial, sans-serif">WROTE</text></g><g class="relationship" transform="translate(-73.9391580216925 181.2149627603048) rotate(302.9253916726621)"><path class="b-outline" fill="#A5ABB6" stroke="none" d="M 25 0.5 L 51.77589904245569 0.5 L 51.77589904245569 -0.5 L 25 -0.5 Z M 87.54933654245569 0.5 L 114.32523558491138 0.5 L 114.32523558491138 3.5 L 121.32523558491138 0 L 114.32523558491138 -3.5 L 114.32523558491138 -0.5 L 87.54933654245569 -0.5 Z"/><text text-anchor="middle" pointer-events="none" font-size="8px" fill="#000000" x="69.66261779245569" y="3" font-family="Helvetica Neue, Helvetica, Arial, sans-serif">WROTE</text></g><g class="relationship" transform="translate(88.51140795083147 178.82978605231654) rotate(235.454198825143)"><path class="b-outline" fill="#A5ABB6" stroke="none" d="M 25 0.5 L 46.16448992471355 0.5 L 46.16448992471355 -0.5 L 25 -0.5 Z M 93.05511492471355 0.5 L 114.2196048494271 0.5 L 114.2196048494271 3.5 L 121.2196048494271 0 L 114.2196048494271 -3.5 L 114.2196048494271 -0.5 L 93.05511492471355 -0.5 Z"/><text text-anchor="middle" pointer-events="none" font-size="8px" fill="#000000" x="69.60980242471355" y="3" transform="rotate(180 69.60980242471355 0)" font-family="Helvetica Neue, Helvetica, Arial, sans-serif">DIRECTED</text></g></g><g class="layer nodes"><g class="node" aria-label="graph-node561" transform="translate(5.59541010564984,58.39262341693877)"><circle class="b-outline" cx="0" cy="0" r="25" fill="#F79767" stroke="#f36924" stroke-width="2px"/><text class="caption" text-anchor="middle" pointer-events="none" x="0" y="-5" font-size="10px" fill="#FFFFFF" font-family="Helvetica Neue, Helvetica, Arial, sans-serif"> Captain</text><text class="caption" text-anchor="middle" pointer-events="none" x="0" y="5" font-size="10px" fill="#FFFFFF" font-family="Helvetica Neue, Helvetica, Arial, sans-serif"> America:</text><text class="caption" text-anchor="middle" pointer-events="none" x="0" y="15" font-size="10px" fill="#FFFFFF" font-family="Helvetica Neue, Helvetica, Arial, sans-serif"> Th</text></g><g class="node" aria-label="graph-node562" transform="translate(88.51140795083147,178.82978605231654)"><circle class="b-outline" cx="0" cy="0" r="25" fill="#C990C0" stroke="#b261a5" stroke-width="2px"/><text class="caption" text-anchor="middle" pointer-events="none" x="0" y="0" font-size="10px" fill="#FFFFFF" font-family="Helvetica Neue, Helvetica, Arial, sans-serif"> Joe</text><text class="caption" text-anchor="middle" pointer-events="none" x="0" y="10" font-size="10px" fill="#FFFFFF" font-family="Helvetica Neue, Helvetica, Arial, sans-serif"> Johnst…</text></g><g class="node" aria-label="graph-node563" transform="translate(152.64069429586678,49.15863169834261)"><circle class="b-outline" cx="0" cy="0" r="25" fill="#C990C0" stroke="#b261a5" stroke-width="2px"/><text class="caption" text-anchor="middle" pointer-events="none" x="0" y="5" font-size="10px" fill="#FFFFFF" font-family="Helvetica Neue, Helvetica, Arial, sans-serif"> Christop…</text></g><g class="node" aria-label="graph-node394" transform="translate(100.24950600815184,-54.94406728693072)"><circle class="b-outline" cx="0" cy="0" r="25" fill="#C990C0" stroke="#b261a5" stroke-width="2px"/><text class="caption" text-anchor="middle" pointer-events="none" x="0" y="0" font-size="10px" fill="#FFFFFF" font-family="Helvetica Neue, Helvetica, Arial, sans-serif"> Hugo</text><text class="caption" text-anchor="middle" pointer-events="none" x="0" y="10" font-size="10px" fill="#FFFFFF" font-family="Helvetica Neue, Helvetica, Arial, sans-serif"> Weavi…</text></g><g class="node" aria-label="graph-node567" transform="translate(-4.205642372107223,-89.2990680466446)"><circle class="b-outline" cx="0" cy="0" r="25" fill="#C990C0" stroke="#b261a5" stroke-width="2px"/><text class="caption" text-anchor="middle" pointer-events="none" x="0" y="0" font-size="10px" fill="#FFFFFF" font-family="Helvetica Neue, Helvetica, Arial, sans-serif"> Samuel L.</text><text class="caption" text-anchor="middle" pointer-events="none" x="0" y="10" font-size="10px" fill="#FFFFFF" font-family="Helvetica Neue, Helvetica, Arial, sans-serif"> Jackson</text></g><g class="node" aria-label="graph-node566" transform="translate(-99.99906857339178,-45.587387013425264)"><circle class="b-outline" cx="0" cy="0" r="25" fill="#C990C0" stroke="#b261a5" stroke-width="2px"/><text class="caption" text-anchor="middle" pointer-events="none" x="0" y="0" font-size="10px" fill="#FFFFFF" font-family="Helvetica Neue, Helvetica, Arial, sans-serif"> Chris</text><text class="caption" text-anchor="middle" pointer-events="none" x="0" y="10" font-size="10px" fill="#FFFFFF" font-family="Helvetica Neue, Helvetica, Arial, sans-serif"> Evans</text></g><g class="node" aria-label="graph-node564" transform="translate(-141.4167208623461,66.31693472973193)"><circle class="b-outline" cx="0" cy="0" r="25" fill="#C990C0" stroke="#b261a5" stroke-width="2px"/><text class="caption" text-anchor="middle" pointer-events="none" x="0" y="0" font-size="10px" fill="#FFFFFF" font-family="Helvetica Neue, Helvetica, Arial, sans-serif"> Stephen</text><text class="caption" text-anchor="middle" pointer-events="none" x="0" y="10" font-size="10px" fill="#FFFFFF" font-family="Helvetica Neue, Helvetica, Arial, sans-serif"> McFe…</text></g><g class="node" aria-label="graph-node565" transform="translate(-73.9391580216925,181.2149627603048)"><circle class="b-outline" cx="0" cy="0" r="25" fill="#C990C0" stroke="#b261a5" stroke-width="2px"/><text class="caption" text-anchor="middle" pointer-events="none" x="0" y="0" font-size="10px" fill="#FFFFFF" font-family="Helvetica Neue, Helvetica, Arial, sans-serif"> Joe</text><text class="caption" text-anchor="middle" pointer-events="none" x="0" y="10" font-size="10px" fill="#FFFFFF" font-family="Helvetica Neue, Helvetica, Arial, sans-serif"> Simon</text></g></g></svg>