<svg xmlns="http://www.w3.org/2000/svg" width="589.0877685546875" height="335.65570068359375" viewBox="-286.6181335449219 -169.52577209472656 589.0877685546875 335.65570068359375"><title>Neo4j Graph Visualization</title><desc>Created using Neo4j (http://www.neo4j.com/)</desc><g class="layer relationships"><g class="relationship" transform="translate(3.1497060009835915 -5.665471954272182) rotate(363.13635522002653)"><path class="b-outline" fill="#A5ABB6" stroke="none" d="M 24.018736134675446,-6.953439040707552 L 24.277555179777966,-5.987513214418485 A 166.2785524404261 166.2785524404261 0 0 1 54.26645559323135,-11.14065035189887 L 54.187989936905154,-12.137567169279976 A 167.2785524404261 167.2785524404261 0 0 0 24.018736134675446,-6.953439040707552 Z M 76.24794015783405,-12.414556347224732 L 76.19453026945294,-11.415983673943941 A 166.2785524404261 166.2785524404261 0 0 1 106.30336343830909,-7.0174457832702535 L 105.59990977836387,-4.101086246397328 L 113.22544463433678,-5.862113832876881 L 107.24130165156939,-10.905925165767488 L 106.53784799162416,-7.989565628894563 A 167.2785524404261 167.2785524404261 0 0 0 76.24794015783405,-12.414556347224732"/><text text-anchor="middle" pointer-events="none" font-size="8px" fill="#000000" x="65.21967130596093" y="-9.140172046357662" font-family="Helvetica Neue, Helvetica, Arial, sans-serif">road</text></g><g class="relationship" transform="translate(140.47215053262548 1.8590379860198754) rotate(334.4028251551165)"><path class="b-outline" fill="#A5ABB6" stroke="none" d="M 21.40063509461097,-12.933012701892217 L 21.90063509461097,-12.06698729810778 A 100.96436946258382 100.96436946258382 0 0 1 47.23134632605143,-22.41070452354917 L 46.982233954689846,-23.379179110946595 A 101.96436946258382 101.96436946258382 0 0 0 21.40063509461097,-12.933012701892217 Z M 93.25708562062685,-24.434076284140076 L 93.05236444297681,-23.45525595362912 A 100.96436946258382 100.96436946258382 0 0 1 118.82811477841264,-14.276578915199407 L 117.4480647112534,-11.612848108204492 L 125.27349500592732,-11.500417226326995 L 120.66818153462496,-17.828219991192626 L 119.28813146746572,-15.164489184197711 A 101.96436946258382 101.96436946258382 0 0 0 93.25708562062685,-24.434076284140076"/><text text-anchor="middle" pointer-events="none" font-size="8px" fill="#000000" x="70.07040450650854" y="-23.06729405147003" font-family="Helvetica Neue, Helvetica, Arial, sans-serif">twowheeler</text></g><g class="relationship" transform="translate(273.46966382493474 -61.854630446554644) rotate(193.64275871899065)"><path class="b-outline" fill="#A5ABB6" stroke="none" d="M 21.40063509461097,12.933012701892217 L 21.90063509461097,12.06698729810778 A 101.58247501815815 101.58247501815815 0 0 0 47.53167151811525,22.511276102622205 L 47.283989020902254,23.48011735926559 A 102.58247501815815 102.58247501815815 0 0 1 21.40063509461097,12.933012701892217 Z M 93.56246014943123,24.53094246847506 L 93.35900836546865,23.551857501987243 A 101.58247501815815 101.58247501815815 0 0 0 119.43769171691399,14.281718806684312 L 118.05716365521236,11.61823569788592 L 125.88257364772718,11.504400514180244 L 121.27839579918283,17.8330296184155 L 119.8978677374812,15.169546509617108 A 102.58247501815815 102.58247501815815 0 0 1 93.56246014943123,24.53094246847506"/><text text-anchor="middle" pointer-events="none" font-size="8px" fill="#000000" x="70.37452757797216" y="29.150152288944057" transform="rotate(180 70.37452757797216 26.150152288944057)" font-family="Helvetica Neue, Helvetica, Arial, sans-serif">twowheeler</text></g><g class="relationship" transform="translate(129.56938916513297 -96.78146654524713) rotate(476.34011242643874)"><path class="b-outline" fill="#A5ABB6" stroke="none" d="M 25 0.5 L 89.63657621704608 0.5 L 89.63657621704608 -0.5 L 25 -0.5 Z M 108.97251371704608 0.5 L 173.60908993409217 0.5 L 173.60908993409217 3.5 L 180.60908993409217 0 L 173.60908993409217 -3.5 L 173.60908993409217 -0.5 L 108.97251371704608 -0.5 Z"/><text text-anchor="middle" pointer-events="none" font-size="8px" fill="#000000" x="99.30454496704608" y="3" transform="rotate(180 99.30454496704608 0)" font-family="Helvetica Neue, Helvetica, Arial, sans-serif">trek</text></g><g class="relationship" transform="translate(273.46966382493474 -61.854630446554644) rotate(193.64275871899065)"><path class="b-outline" fill="#A5ABB6" stroke="none" d="M 25 0.5 L 59.533273735523565 0.5 L 59.533273735523565 -0.5 L 25 -0.5 Z M 81.54499248552357 0.5 L 116.07826622104713 0.5 L 116.07826622104713 3.5 L 123.07826622104713 0 L 116.07826622104713 -3.5 L 116.07826622104713 -0.5 L 81.54499248552357 -0.5 Z"/><text text-anchor="middle" pointer-events="none" font-size="8px" fill="#000000" x="70.53913311052357" y="3" transform="rotate(180 70.53913311052357 0)" font-family="Helvetica Neue, Helvetica, Arial, sans-serif">road</text></g><g class="relationship" transform="translate(273.46966382493474 -61.854630446554644) rotate(193.64275871899065)"><path class="b-outline" fill="#A5ABB6" stroke="none" d="M 21.40063509461097,-12.933012701892217 L 21.90063509461097,-12.06698729810778 A 101.58247501815815 101.58247501815815 0 0 1 60.79244801636719,-24.977098517642062 L 60.67530749005893,-25.97021386698283 A 102.58247501815815 102.58247501815815 0 0 0 21.40063509461097,-12.933012701892217 Z M 80.0719185711348,-26.410644275778253 L 79.99997601012583,-25.4132354990395 A 101.58247501815815 101.58247501815815 0 0 1 119.43769171691399,-14.281718806684312 L 118.05716365521236,-11.61823569788592 L 125.88257364772718,-11.504400514180244 L 121.27839579918283,-17.8330296184155 L 119.8978677374812,-15.169546509617108 A 102.58247501815815 102.58247501815815 0 0 0 80.0719185711348,-26.410644275778253"/><text text-anchor="middle" pointer-events="none" font-size="8px" fill="#000000" x="70.37452757797213" y="-23.150152288944057" transform="rotate(180 70.37452757797213 -26.150152288944057)" font-family="Helvetica Neue, Helvetica, Arial, sans-serif">trek</text></g><g class="relationship" transform="translate(140.47215053262548 1.8590379860198754) rotate(334.4028251551165)"><path class="b-outline" fill="#A5ABB6" stroke="none" d="M 25 0.5 L 59.229766490442444 0.5 L 59.229766490442444 -0.5 L 25 -0.5 Z M 81.24148524044244 0.5 L 115.47125173088489 0.5 L 115.47125173088489 3.5 L 122.47125173088489 0 L 115.47125173088489 -3.5 L 115.47125173088489 -0.5 L 81.24148524044244 -0.5 Z"/><text text-anchor="middle" pointer-events="none" font-size="8px" fill="#000000" x="70.23562586544244" y="3" font-family="Helvetica Neue, Helvetica, Arial, sans-serif">road</text></g><g class="relationship" transform="translate(140.47215053262548 1.8590379860198754) rotate(334.4028251551165)"><path class="b-outline" fill="#A5ABB6" stroke="none" d="M 21.40063509461097,12.933012701892217 L 21.90063509461097,12.06698729810778 A 100.96436946258382 100.96436946258382 0 0 0 60.488956548216194,24.890636512834405 L 60.37115396755338,25.883673547385072 A 101.96436946258382 101.96436946258382 0 0 1 21.40063509461097,12.933012701892217 Z M 79.76794680542727,26.32584939878288 L 79.69551829909267,25.328475792018523 A 100.96436946258382 100.96436946258382 0 0 0 118.82811477841264,14.276578915199407 L 117.4480647112534,11.612848108204492 L 125.27349500592732,11.500417226326995 L 120.66818153462496,17.828219991192626 L 119.28813146746572,15.164489184197711 A 101.96436946258382 101.96436946258382 0 0 1 79.76794680542727,26.32584939878288"/><text text-anchor="middle" pointer-events="none" font-size="8px" fill="#000000" x="70.07040450650854" y="29.06729405147003" font-family="Helvetica Neue, Helvetica, Arial, sans-serif">trek</text></g><g class="relationship" transform="translate(3.1497060009835915 -5.665471954272182) rotate(363.13635522002653)"><path class="b-outline" fill="#A5ABB6" stroke="none" d="M 24.018736134675446,6.953439040707552 L 24.277555179777966,5.987513214418485 A 166.2785524404261 166.2785524404261 0 0 0 55.59662818418248,11.239979331774634 L 55.52616219210299,12.237493514110014 A 167.2785524404261 167.2785524404261 0 0 1 24.018736134675446,6.953439040707552 Z M 74.9076807887055,12.480851765131831 L 74.86228304144815,11.481882774349856 A 166.2785524404261 166.2785524404261 0 0 0 106.30336343830909,7.0174457832702535 L 105.59990977836387,4.101086246397328 L 113.22544463433678,5.862113832876881 L 107.24130165156939,10.905925165767488 L 106.53784799162416,7.989565628894563 A 167.2785524404261 167.2785524404261 0 0 1 74.9076807887055,12.480851765131831"/><text text-anchor="middle" pointer-events="none" font-size="8px" fill="#000000" x="65.21967130596094" y="15.140172046357662" font-family="Helvetica Neue, Helvetica, Arial, sans-serif">trek</text></g><g class="relationship" transform="translate(3.1497060009835915 -5.665471954272182) rotate(269.2050393255346)"><path class="b-outline" fill="#A5ABB6" stroke="none" d="M 21.40063509461097,12.933012701892217 L 21.90063509461097,12.06698729810778 A 88.11367401567908 88.11367401567908 0 0 0 54.19153294599031,23.08288690566475 L 54.05800158110401,24.073931493254847 A 89.11367401567908 89.11367401567908 0 0 1 21.40063509461097,12.933012701892217 Z M 73.45850612717243,24.555724851281894 L 73.37433235577791,23.559273760555797 A 88.11367401567908 88.11367401567908 0 0 0 106.17222704696769,14.159793347383486 L 104.80303814205284,11.490463517134312 L 112.62886146836823,11.409907540957038 L 107.99781225352082,17.718899787715717 L 106.62862334860597,15.049569957466543 A 89.11367401567908 89.11367401567908 0 0 1 73.45850612717243,24.555724851281894"/><text text-anchor="middle" pointer-events="none" font-size="8px" fill="#000000" x="63.757512798999926" y="27.344668441628244" transform="rotate(180 63.757512798999926 24.344668441628244)" font-family="Helvetica Neue, Helvetica, Arial, sans-serif">trek</text></g><g class="relationship" transform="translate(1.2784423248308738 -140.52576687299148) rotate(405.6492986317037)"><path class="b-outline" fill="#A5ABB6" stroke="none" d="M 25 0.5 L 86.39146206819949 0.5 L 86.39146206819949 -0.5 L 25 -0.5 Z M 105.72739956819949 0.5 L 167.11886163639898 0.5 L 167.11886163639898 3.5 L 174.11886163639898 0 L 167.11886163639898 -3.5 L 167.11886163639898 -0.5 L 105.72739956819949 -0.5 Z"/><text text-anchor="middle" pointer-events="none" font-size="8px" fill="#000000" x="96.05943081819949" y="3" font-family="Helvetica Neue, Helvetica, Arial, sans-serif">trek</text></g><g class="relationship" transform="translate(1.2784423248308738 -140.52576687299148) rotate(509.4653651140489)"><path class="b-outline" fill="#A5ABB6" stroke="none" d="M 24.018736134675446,-6.953439040707552 L 24.277555179777966,-5.987513214418485 A 234.70756535251314 234.70756535251314 0 0 1 59.517947958522925,-12.594934001736021 L 59.40927487367446,-13.589011544299723 A 235.70756535251314 235.70756535251314 0 0 0 24.018736134675446,-6.953439040707552 Z M 105.89483701047892,-14.059182777394824 L 105.80629299681262,-13.063110512122961 A 234.70756535251314 234.70756535251314 0 0 1 141.17312218115097,-7.169835861580262 L 140.45543616654592,-4.256946096340192 L 148.08947930247862,-5.980716788375211 L 142.130036867291,-11.053688881900356 L 141.41235085268596,-8.140799116660286 A 235.70756535251314 235.70756535251314 0 0 0 105.89483701047892,-14.059182777394824"/><text text-anchor="middle" pointer-events="none" font-size="8px" fill="#000000" x="82.6454932214264" y="-11.472949615233802" transform="rotate(180 82.6454932214264 -14.472949615233802)" font-family="Helvetica Neue, Helvetica, Arial, sans-serif">twowheeler</text></g><g class="relationship" transform="translate(-147.18211891662676 -52.9548881176661) rotate(496.38959930249547)"><path class="b-outline" fill="#A5ABB6" stroke="none" d="M 24.018736134675446,-6.953439040707552 L 24.277555179777966,-5.987513214418485 A 195.80288622087815 195.80288622087815 0 0 1 49.62604241825292,-11.014143615300213 L 49.496682584542626,-12.005741332836124 A 196.80288622087815 196.80288622087815 0 0 0 24.018736134675446,-6.953439040707552 Z M 95.96820041023119,-12.5343073566913 L 95.86142794569089,-11.54002387557739 A 195.80288622087815 195.80288622087815 0 0 1 121.31768827497001,-7.09124555853723 L 120.60734199841583,-4.176557210293865 L 128.23701880029688,-5.919552304618062 L 122.2648166437089,-10.977496689528381 L 121.55447036715472,-8.062808341285017 A 196.80288622087815 196.80288622087815 0 0 0 95.96820041023119,-12.5343073566913"/><text text-anchor="middle" pointer-events="none" font-size="8px" fill="#000000" x="72.72247090825051" y="-10.146638409748363" transform="rotate(180 72.72247090825051 -13.146638409748363)" font-family="Helvetica Neue, Helvetica, Arial, sans-serif">twowheeler</text></g><g class="relationship" transform="translate(-257.61812457794707 52.25013213668408) rotate(355.1608798623399)"><path class="b-outline" fill="#A5ABB6" stroke="none" d="M 25 0.5 L 61.61385676900039 0.5 L 61.61385676900039 -0.5 L 25 -0.5 Z M 80.94979426900039 0.5 L 117.56365103800078 0.5 L 117.56365103800078 3.5 L 124.56365103800078 0 L 117.56365103800078 -3.5 L 117.56365103800078 -0.5 L 80.94979426900039 -0.5 Z"/><text text-anchor="middle" pointer-events="none" font-size="8px" fill="#000000" x="71.28182551900039" y="3" font-family="Helvetica Neue, Helvetica, Arial, sans-serif">trek</text></g><g class="relationship" transform="translate(-108.58759409781742 39.633211092783384) rotate(378.03783718877816)"><path class="b-outline" fill="#A5ABB6" stroke="none" d="M 25 0.5 L 64.09350778586726 0.5 L 64.09350778586726 -0.5 L 25 -0.5 Z M 83.42944528586726 0.5 L 122.52295307173452 0.5 L 122.52295307173452 3.5 L 129.52295307173452 0 L 122.52295307173452 -3.5 L 122.52295307173452 -0.5 L 83.42944528586726 -0.5 Z"/><text text-anchor="middle" pointer-events="none" font-size="8px" fill="#000000" x="73.76147653586726" y="3" font-family="Helvetica Neue, Helvetica, Arial, sans-serif">trek</text></g><g class="relationship" transform="translate(-257.61812457794707 52.25013213668408) rotate(393.3007908238204)"><path class="b-outline" fill="#A5ABB6" stroke="none" d="M 21.40063509461097,12.933012701892217 L 21.90063509461097,12.06698729810778 A 108.21619863561936 108.21619863561936 0 0 0 50.760890477368925,23.578720925097898 L 50.527581192313875,24.55112350505493 A 109.21619863561936 109.21619863561936 0 0 1 21.40063509461097,12.933012701892217 Z M 96.8406681252549,25.560057101088233 L 96.64992779577011,24.578416572835636 A 108.21619863561936 108.21619863561936 0 0 0 125.98413244944896,14.334453023853802 L 124.59870036071048,11.673517487713603 L 132.4238873818992,11.545267406154036 L 127.83137523443362,17.882367072040733 L 126.44594314569514,15.221431535900534 A 109.21619863561936 109.21619863561936 0 0 1 96.8406681252549,25.560057101088233"/><text text-anchor="middle" pointer-events="none" font-size="8px" fill="#000000" x="73.64090679533734" y="30.039420234741954" font-family="Helvetica Neue, Helvetica, Arial, sans-serif">twowheeler</text></g><g class="relationship" transform="translate(-128.4048569790121 137.12993748361205) rotate(343.4188100524482)"><path class="b-outline" fill="#A5ABB6" stroke="none" d="M 24.018736134675446,6.953439040707552 L 24.277555179777966,5.987513214418485 A 237.87283320162024 237.87283320162024 0 0 0 60.324762674990076,12.720053121188869 L 60.21748345480173,13.714282053032946 A 238.87283320162024 238.87283320162024 0 0 1 24.018736134675446,6.953439040707552 Z M 106.70377390697647,14.180254353503102 L 106.61644627368081,13.18407470882903 A 237.87283320162024 237.87283320162024 0 0 0 142.79136918552322,7.175479688245142 L 142.07315609207086,4.262719836765175 L 149.70751102121855,5.98510911210297 L 143.74898664345972,11.05915949021843 L 143.03077355000735,8.146399638738464 A 238.87283320162024 238.87283320162024 0 0 1 106.70377390697647,14.180254353503102"/><text text-anchor="middle" pointer-events="none" font-size="8px" fill="#000000" x="83.45427765468283" y="17.580858759178142" font-family="Helvetica Neue, Helvetica, Arial, sans-serif">twowheeler</text></g><g class="relationship" transform="translate(-128.4048569790121 137.12993748361205) rotate(343.4188100524482)"><path class="b-outline" fill="#A5ABB6" stroke="none" d="M 24.018736134675446,-6.953439040707552 L 24.277555179777966,-5.987513214418485 A 237.87283320162024 237.87283320162024 0 0 1 73.81668976512978,-13.788598374167293 L 73.76612962003945,-14.787319392134009 A 238.87283320162024 238.87283320162024 0 0 0 24.018736134675446,-6.953439040707552 Z M 93.13634034478409,-14.981483769721564 L 93.10581043679001,-13.981949916008801 A 237.87283320162024 237.87283320162024 0 0 1 142.79136918552322,-7.175479688245142 L 142.07315609207086,-4.262719836765175 L 149.70751102121855,-5.98510911210297 L 143.74898664345972,-11.05915949021843 L 143.03077355000735,-8.146399638738464 A 238.87283320162024 238.87283320162024 0 0 0 93.13634034478409,-14.981483769721564"/><text text-anchor="middle" pointer-events="none" font-size="8px" fill="#000000" x="83.4542776546828" y="-11.580858759178142" font-family="Helvetica Neue, Helvetica, Arial, sans-serif">trek</text></g><g class="relationship" transform="translate(-257.61812457794707 52.25013213668408) rotate(393.3007908238204)"><path class="b-outline" fill="#A5ABB6" stroke="none" d="M 25 0.5 L 62.79331571653374 0.5 L 62.79331571653374 -0.5 L 25 -0.5 Z M 84.80503446653374 0.5 L 122.59835018306748 0.5 L 122.59835018306748 3.5 L 129.59835018306748 0 L 122.59835018306748 -3.5 L 122.59835018306748 -0.5 L 84.80503446653374 -0.5 Z"/><text text-anchor="middle" pointer-events="none" font-size="8px" fill="#000000" x="73.79917509153374" y="3" font-family="Helvetica Neue, Helvetica, Arial, sans-serif">road</text></g><g class="relationship" transform="translate(-257.61812457794707 52.25013213668408) rotate(393.3007908238204)"><path class="b-outline" fill="#A5ABB6" stroke="none" d="M 21.40063509461097,-12.933012701892217 L 21.90063509461097,-12.06698729810778 A 108.21619863561936 108.21619863561936 0 0 1 64.05256476065084,-25.9026974906527 L 63.942080657508136,-26.896575382022036 A 109.21619863561936 109.21619863561936 0 0 0 21.40063509461097,-12.933012701892217 Z M 83.33675220324743,-27.319089556792136 L 83.26965576625025,-26.32134306186356 A 108.21619863561936 108.21619863561936 0 0 1 125.98413244944896,-14.334453023853802 L 124.59870036071048,-11.673517487713603 L 132.4238873818992,-11.545267406154036 L 127.83137523443362,-17.882367072040733 L 126.44594314569514,-15.221431535900534 A 109.21619863561936 109.21619863561936 0 0 0 83.33675220324743,-27.319089556792136"/><text text-anchor="middle" pointer-events="none" font-size="8px" fill="#000000" x="73.64090679533733" y="-24.039420234741954" font-family="Helvetica Neue, Helvetica, Arial, sans-serif">trek</text></g><g class="relationship" transform="translate(-147.18211891662676 -52.9548881176661) rotate(496.38959930249547)"><path class="b-outline" fill="#A5ABB6" stroke="none" d="M 24.018736134675446,6.953439040707552 L 24.277555179777966,5.987513214418485 A 195.80288622087815 195.80288622087815 0 0 0 63.09203559838066,12.299633744441195 L 63.03144897552558,13.297796687617819 A 196.80288622087815 196.80288622087815 0 0 1 24.018736134675446,6.953439040707552 Z M 82.40754766404623,13.518180008860554 L 82.36967994478982,12.518897248157487 A 195.80288622087815 195.80288622087815 0 0 0 121.31768827497001,7.09124555853723 L 120.60734199841583,4.176557210293865 L 128.23701880029688,5.919552304618062 L 122.2648166437089,10.977496689528381 L 121.55447036715472,8.062808341285017 A 196.80288622087815 196.80288622087815 0 0 1 82.40754766404623,13.518180008860554"/><text text-anchor="middle" pointer-events="none" font-size="8px" fill="#000000" x="72.72247090825054" y="16.146638409748363" transform="rotate(180 72.72247090825054 13.146638409748363)" font-family="Helvetica Neue, Helvetica, Arial, sans-serif">trek</text></g><g class="relationship" transform="translate(-147.18211891662676 -52.9548881176661) rotate(444.3584201115722)"><path class="b-outline" fill="#A5ABB6" stroke="none" d="M 24.018736134675446,-6.953439040707552 L 24.277555179777966,-5.987513214418485 A 271.1663096984094 271.1663096984094 0 0 1 68.82522265630485,-14.012813399585639 L 68.73068533014475,-15.008334717269236 A 272.1663096984094 272.1663096984094 0 0 0 24.018736134675446,-6.953439040707552 Z M 115.22237733833357,-15.434233031109784 L 115.14609377171048,-14.437146867599665 A 271.1663096984094 271.1663096984094 0 0 1 159.83330811245654,-7.229304255175667 L 159.11006840396988,-4.3177884430825735 L 166.74738495875488,-6.026997570722271 L 160.7976277237721,-11.11132533796646 L 160.07438801528545,-8.199809525873365 A 272.1663096984094 272.1663096984094 0 0 0 115.22237733833357,-15.434233031109784"/><text text-anchor="middle" pointer-events="none" font-size="8px" fill="#000000" x="91.9720004413286" y="-12.715882868536426" font-family="Helvetica Neue, Helvetica, Arial, sans-serif">twowheeler</text></g><g class="relationship" transform="translate(-147.18211891662676 -52.9548881176661) rotate(444.3584201115722)"><path class="b-outline" fill="#A5ABB6" stroke="none" d="M 24.018736134675446,6.953439040707552 L 24.277555179777966,5.987513214418485 A 271.1663096984094 271.1663096984094 0 0 0 82.33042013065091,14.955835213610953 L 82.28568691728552,15.954834182390186 A 272.1663096984094 272.1663096984094 0 0 1 24.018736134675446,6.953439040707552 Z M 101.65231079269712,16.132246793053355 L 101.62588669090152,15.132595970593684 A 271.1663096984094 271.1663096984094 0 0 0 159.83330811245654,7.229304255175667 L 159.11006840396988,4.3177884430825735 L 166.74738495875488,6.026997570722271 L 160.7976277237721,11.11132533796646 L 160.07438801528545,8.199809525873365 A 272.1663096984094 272.1663096984094 0 0 1 101.65231079269712,16.132246793053355"/><text text-anchor="middle" pointer-events="none" font-size="8px" fill="#000000" x="91.97200044132859" y="18.715882868536426" font-family="Helvetica Neue, Helvetica, Arial, sans-serif">trek</text></g><g class="relationship" transform="translate(1.2784423248308738 -140.52576687299148) rotate(509.4653651140489)"><path class="b-outline" fill="#A5ABB6" stroke="none" d="M 24.018736134675446,6.953439040707552 L 24.277555179777966,5.987513214418485 A 234.70756535251314 234.70756535251314 0 0 0 73.00834807727085,13.677194711424619 L 72.95715247551284,14.675883356779423 A 235.70756535251314 235.70756535251314 0 0 1 24.018736134675446,6.953439040707552 Z M 92.32774726845551,14.871804327096669 L 92.29676224625277,13.872284478169632 A 234.70756535251314 234.70756535251314 0 0 0 141.17312218115097,7.169835861580262 L 140.45543616654592,4.256946096340192 L 148.08947930247862,5.980716788375211 L 142.130036867291,11.053688881900356 L 141.41235085268596,8.140799116660286 A 235.70756535251314 235.70756535251314 0 0 1 92.32774726845551,14.871804327096669"/><text text-anchor="middle" pointer-events="none" font-size="8px" fill="#000000" x="82.6454932214264" y="17.4729496152338" transform="rotate(180 82.6454932214264 14.472949615233802)" font-family="Helvetica Neue, Helvetica, Arial, sans-serif">trek</text></g><g class="relationship" transform="translate(1.2784423248308738 -140.52576687299148) rotate(378.8282109975381)"><path class="b-outline" fill="#A5ABB6" stroke="none" d="M 25 0.5 L 54.60394809677568 0.5 L 54.60394809677568 -0.5 L 25 -0.5 Z M 73.93988559677568 0.5 L 103.54383369355136 0.5 L 103.54383369355136 3.5 L 110.54383369355136 0 L 103.54383369355136 -3.5 L 103.54383369355136 -0.5 L 73.93988559677568 -0.5 Z"/><text text-anchor="middle" pointer-events="none" font-size="8px" fill="#000000" x="64.27191684677568" y="3" font-family="Helvetica Neue, Helvetica, Arial, sans-serif">trek</text></g><g class="relationship" transform="translate(3.1497060009835915 -5.665471954272182) rotate(269.2050393255346)"><path class="b-outline" fill="#A5ABB6" stroke="none" d="M 25 0.5 L 52.93077898522232 0.5 L 52.93077898522232 -0.5 L 25 -0.5 Z M 74.94249773522232 0.5 L 102.87327672044464 0.5 L 102.87327672044464 3.5 L 109.87327672044464 0 L 102.87327672044464 -3.5 L 102.87327672044464 -0.5 L 74.94249773522232 -0.5 Z"/><text text-anchor="middle" pointer-events="none" font-size="8px" fill="#000000" x="63.93663836022232" y="3" transform="rotate(180 63.93663836022232 0)" font-family="Helvetica Neue, Helvetica, Arial, sans-serif">road</text></g><g class="relationship" transform="translate(3.1497060009835915 -5.665471954272182) rotate(269.2050393255346)"><path class="b-outline" fill="#A5ABB6" stroke="none" d="M 21.40063509461097,-12.933012701892217 L 21.90063509461097,-12.06698729810778 A 88.11367401567908 88.11367401567908 0 0 1 33.838115300741954,-17.809306364316413 L 33.47359348093912,-18.74050121121347 A 89.11367401567908 89.11367401567908 0 0 0 21.40063509461097,-12.933012701892217 Z M 94.28227802199902,-20.25062793254054 L 93.96442774556934,-19.302487013808744 A 88.11367401567908 88.11367401567908 0 0 1 106.17222704696769,-14.159793347383486 L 104.80303814205284,-11.490463517134312 L 112.62886146836823,-11.409907540957038 L 107.99781225352082,-17.718899787715717 L 106.62862334860597,-15.049569957466543 A 89.11367401567908 89.11367401567908 0 0 0 94.28227802199902,-20.25062793254054"/><text text-anchor="middle" pointer-events="none" font-size="8px" fill="#000000" x="63.75751279899989" y="-21.344668441628244" transform="rotate(180 63.75751279899989 -24.344668441628244)" font-family="Helvetica Neue, Helvetica, Arial, sans-serif">PublicTransport</text></g></g><g class="layer nodes"><g class="node" aria-label="graph-node1" transform="translate(3.1497060009835915,-5.665471954272182)"><circle class="b-outline" cx="0" cy="0" r="25" fill="#57C7E3" stroke="#23b3d7" stroke-width="2px"/><text class="caption" text-anchor="middle" pointer-events="none" x="0" y="5" font-size="10px" fill="#2A2C34" font-family="Helvetica Neue, Helvetica, Arial, sans-serif"> Darjeeling</text></g><g class="node" aria-label="graph-node3" transform="translate(38.34090183783524,87.48046919705067)"><circle class="b-outline" cx="0" cy="0" r="25" fill="#D9C8AE" stroke="#c0a378" stroke-width="2px"/><text class="caption" text-anchor="middle" pointer-events="none" x="0" y="5" font-size="10px" fill="#2A2C34" font-family="Helvetica Neue, Helvetica, Arial, sans-serif"> Sandakp…</text></g><g class="node" aria-label="graph-node6" transform="translate(140.47215053262548,1.8590379860198754)"><circle class="b-outline" cx="0" cy="0" r="25" fill="#F16667" stroke="#eb2728" stroke-width="2px"/><text class="caption" text-anchor="middle" pointer-events="none" x="0" y="5" font-size="10px" fill="#FFFFFF" font-family="Helvetica Neue, Helvetica, Arial, sans-serif"> Tumbling</text></g><g class="node" aria-label="graph-node7" transform="translate(273.46966382493474,-61.854630446554644)"><circle class="b-outline" cx="0" cy="0" r="25" fill="#F16667" stroke="#eb2728" stroke-width="2px"/><text class="caption" text-anchor="middle" pointer-events="none" x="0" y="5" font-size="10px" fill="#FFFFFF" font-family="Helvetica Neue, Helvetica, Arial, sans-serif"> Gairibus</text></g><g class="node" aria-label="graph-node2" transform="translate(129.56938916513297,-96.78146654524713)"><circle class="b-outline" cx="0" cy="0" r="25" fill="#F16667" stroke="#eb2728" stroke-width="2px"/><text class="caption" text-anchor="middle" pointer-events="none" x="0" y="5" font-size="10px" fill="#FFFFFF" font-family="Helvetica Neue, Helvetica, Arial, sans-serif"> BhikeBh…</text></g><g class="node" aria-label="graph-node0" transform="translate(1.2784423248308738,-140.52576687299148)"><circle class="b-outline" cx="0" cy="0" r="25" fill="#57C7E3" stroke="#23b3d7" stroke-width="2px"/><text class="caption" text-anchor="middle" pointer-events="none" x="0" y="5" font-size="10px" fill="#2A2C34" font-family="Helvetica Neue, Helvetica, Arial, sans-serif"> Rimbik</text></g><g class="node" aria-label="graph-node4" transform="translate(-147.18211891662676,-52.9548881176661)"><circle class="b-outline" cx="0" cy="0" r="25" fill="#F16667" stroke="#eb2728" stroke-width="2px"/><text class="caption" text-anchor="middle" pointer-events="none" x="0" y="5" font-size="10px" fill="#FFFFFF" font-family="Helvetica Neue, Helvetica, Arial, sans-serif"> Sirikhola</text></g><g class="node" aria-label="graph-node8" transform="translate(-257.61812457794707,52.25013213668408)"><circle class="b-outline" cx="0" cy="0" r="25" fill="#F16667" stroke="#eb2728" stroke-width="2px"/><text class="caption" text-anchor="middle" pointer-events="none" x="0" y="5" font-size="10px" fill="#FFFFFF" font-family="Helvetica Neue, Helvetica, Arial, sans-serif"> Rammam</text></g><g class="node" aria-label="graph-node9" transform="translate(-108.58759409781742,39.633211092783384)"><circle class="b-outline" cx="0" cy="0" r="25" fill="#D9C8AE" stroke="#c0a378" stroke-width="2px"/><text class="caption" text-anchor="middle" pointer-events="none" x="0" y="5" font-size="10px" fill="#2A2C34" font-family="Helvetica Neue, Helvetica, Arial, sans-serif"> Sabargr…</text></g><g class="node" aria-label="graph-node5" transform="translate(-128.4048569790121,137.12993748361205)"><circle class="b-outline" cx="0" cy="0" r="25" fill="#F16667" stroke="#eb2728" stroke-width="2px"/><text class="caption" text-anchor="middle" pointer-events="none" x="0" y="5" font-size="10px" fill="#FFFFFF" font-family="Helvetica Neue, Helvetica, Arial, sans-serif"> Gurdum</text></g></g></svg>