<svg xmlns="http://www.w3.org/2000/svg" width="553.5939331054688" height="371.84619140625" viewBox="-260.45318603515625 -193.70425415039062 553.5939331054688 371.84619140625"><title>Neo4j Graph Visualization</title><desc>Created using Neo4j (http://www.neo4j.com/)</desc><g class="layer relationships"><g class="relationship" transform="translate(-26.377801513374717 -32.63890678169115) rotate(365.8844703842664)"><path class="b-outline" fill="#A5ABB6" stroke="none" d="M 24.018736134675446,-6.953439040707552 L 24.277555179777966,-5.987513214418485 A 173.43117921172075 173.43117921172075 0 0 1 56.078954328733275,-11.402648102474018 L 56.003501384775305,-12.399797466033988 A 174.43117921172075 174.43117921172075 0 0 0 24.018736134675446,-6.953439040707552 Z M 78.06211428285627,-12.669976688568255 L 78.01110696324344,-11.67127840913352 A 173.43117921172075 173.43117921172075 0 0 1 109.93559775282363,-7.036673624146858 L 109.23034826025068,-4.120747844359997 L 116.85696615442178,-5.877079104774486 L 110.87593040958754,-10.924574663862673 L 110.1706809170146,-8.008648884075813 A 174.43117921172075 174.43117921172075 0 0 0 78.06211428285627,-12.669976688568255"/><text text-anchor="middle" pointer-events="none" font-size="8px" fill="#000000" x="67.03465602974407" y="-9.383992281767831" font-family="Helvetica Neue, Helvetica, Arial, sans-serif">road</text></g><g class="relationship" transform="translate(114.0347427769422 -18.16714501767693) rotate(352.3782524016882)"><path class="b-outline" fill="#A5ABB6" stroke="none" d="M 21.40063509461097,-12.933012701892217 L 21.90063509461097,-12.06698729810778 A 105.00806127318648 105.00806127318648 0 0 1 49.19788366504692,-23.06511902034741 L 48.95783750325197,-24.035880494761955 A 106.00806127318648 106.00806127318648 0 0 0 21.40063509461097,-12.933012701892217 Z M 95.25509842712425,-25.06466836284538 L 95.05841118989436,-24.084202080553695 A 105.00806127318648 105.00806127318648 0 0 1 122.81726046350714,-14.309491450527407 L 121.43414965814657,-11.647348610615385 L 129.2594455575286,-11.52592337800475 L 124.66140820398789,-17.85901523707677 L 123.27829739862732,-15.196872397164746 A 106.00806127318648 106.00806127318648 0 0 0 95.25509842712425,-25.06466836284538"/><text text-anchor="middle" pointer-events="none" font-size="8px" fill="#000000" x="72.06071228917729" y="-23.60936020998379" font-family="Helvetica Neue, Helvetica, Arial, sans-serif">twowheeler</text></g><g class="relationship" transform="translate(264.14074521968365 -38.25355447324291) rotate(211.40478396051822)"><path class="b-outline" fill="#A5ABB6" stroke="none" d="M 21.40063509461097,12.933012701892217 L 21.90063509461097,12.06698729810778 A 98.95867661222213 98.95867661222213 0 0 0 46.257541139026614,22.08294070098418 L 46.00367323050416,23.05017959858003 A 99.95867661222213 99.95867661222213 0 0 1 21.40063509461097,12.933012701892217 Z M 92.26625629942427,24.11849836171143 L 92.05730712555987,23.140571860004172 A 98.95867661222213 98.95867661222213 0 0 0 116.85058999777844,14.259619262267984 L 115.47211713960037,11.59507191247921 L 123.29761262364859,11.487273818150612 L 118.68855380868253,17.81234906198635 L 117.31008095050446,15.147801712197575 A 99.95867661222213 99.95867661222213 0 0 1 92.26625629942427,24.11849836171143"/><text text-anchor="middle" pointer-events="none" font-size="8px" fill="#000000" x="69.08383591599174" y="28.798427793744594" transform="rotate(180 69.08383591599174 25.798427793744594)" font-family="Helvetica Neue, Helvetica, Arial, sans-serif">twowheeler</text></g><g class="relationship" transform="translate(139.95357879611748 -114.0719578930639) rotate(474.71562024036075)"><path class="b-outline" fill="#A5ABB6" stroke="none" d="M 25 0.5 L 88.89122938644833 0.5 L 88.89122938644833 -0.5 L 25 -0.5 Z M 108.22716688644833 0.5 L 172.11839627289666 0.5 L 172.11839627289666 3.5 L 179.11839627289666 0 L 172.11839627289666 -3.5 L 172.11839627289666 -0.5 L 108.22716688644833 -0.5 Z"/><text text-anchor="middle" pointer-events="none" font-size="8px" fill="#000000" x="98.55919813644833" y="3" transform="rotate(180 98.55919813644833 0)" font-family="Helvetica Neue, Helvetica, Arial, sans-serif">trek</text></g><g class="relationship" transform="translate(264.14074521968365 -38.25355447324291) rotate(211.40478396051822)"><path class="b-outline" fill="#A5ABB6" stroke="none" d="M 25 0.5 L 58.2452275609442 0.5 L 58.2452275609442 -0.5 L 25 -0.5 Z M 80.2569463109442 0.5 L 113.5021738718884 0.5 L 113.5021738718884 3.5 L 120.5021738718884 0 L 113.5021738718884 -3.5 L 113.5021738718884 -0.5 L 80.2569463109442 -0.5 Z"/><text text-anchor="middle" pointer-events="none" font-size="8px" fill="#000000" x="69.2510869359442" y="3" transform="rotate(180 69.2510869359442 0)" font-family="Helvetica Neue, Helvetica, Arial, sans-serif">road</text></g><g class="relationship" transform="translate(264.14074521968365 -38.25355447324291) rotate(211.40478396051822)"><path class="b-outline" fill="#A5ABB6" stroke="none" d="M 21.40063509461097,-12.933012701892217 L 21.90063509461097,-12.06698729810778 A 98.95867661222213 98.95867661222213 0 0 1 59.50449981869165,-24.609797657519877 L 59.384495449306584,-25.60257102104677 A 99.95867661222213 99.95867661222213 0 0 0 21.40063509461097,-12.933012701892217 Z M 78.78187810977128,-26.050505106805502 L 78.70782846285805,-25.053250550640414 A 98.95867661222213 98.95867661222213 0 0 1 116.85058999777844,-14.259619262267984 L 115.47211713960037,-11.59507191247921 L 123.29761262364859,-11.487273818150612 L 118.68855380868253,-17.81234906198635 L 117.31008095050446,-15.147801712197575 A 99.95867661222213 99.95867661222213 0 0 0 78.78187810977128,-26.050505106805502"/><text text-anchor="middle" pointer-events="none" font-size="8px" fill="#000000" x="69.08383591599176" y="-22.798427793744594" transform="rotate(180 69.08383591599176 -25.798427793744594)" font-family="Helvetica Neue, Helvetica, Arial, sans-serif">trek</text></g><g class="relationship" transform="translate(114.0347427769422 -18.16714501767693) rotate(352.3782524016882)"><path class="b-outline" fill="#A5ABB6" stroke="none" d="M 25 0.5 L 61.216125236731074 0.5 L 61.216125236731074 -0.5 L 25 -0.5 Z M 83.22784398673107 0.5 L 119.44396922346215 0.5 L 119.44396922346215 3.5 L 126.44396922346215 0 L 119.44396922346215 -3.5 L 119.44396922346215 -0.5 L 83.22784398673107 -0.5 Z"/><text text-anchor="middle" pointer-events="none" font-size="8px" fill="#000000" x="72.22198461173107" y="3" font-family="Helvetica Neue, Helvetica, Arial, sans-serif">road</text></g><g class="relationship" transform="translate(114.0347427769422 -18.16714501767693) rotate(352.3782524016882)"><path class="b-outline" fill="#A5ABB6" stroke="none" d="M 21.40063509461097,12.933012701892217 L 21.90063509461097,12.06698729810778 A 105.00806127318648 105.00806127318648 0 0 0 62.475285998445834,25.4555842409046 L 62.36168158000292,26.449110303023886 A 106.00806127318648 106.00806127318648 0 0 1 21.40063509461097,12.933012701892217 Z M 81.75728760902565,26.880106949015413 L 81.6879285264284,25.882515189997093 A 105.00806127318648 105.00806127318648 0 0 0 122.81726046350714,14.309491450527407 L 121.43414965814657,11.647348610615385 L 129.2594455575286,11.52592337800475 L 124.66140820398789,17.85901523707677 L 123.27829739862732,15.196872397164746 A 106.00806127318648 106.00806127318648 0 0 1 81.75728760902565,26.880106949015413"/><text text-anchor="middle" pointer-events="none" font-size="8px" fill="#000000" x="72.0607122891773" y="29.60936020998379" font-family="Helvetica Neue, Helvetica, Arial, sans-serif">trek</text></g><g class="relationship" transform="translate(-26.377801513374717 -32.63890678169115) rotate(365.8844703842664)"><path class="b-outline" fill="#A5ABB6" stroke="none" d="M 24.018736134675446,6.953439040707552 L 24.277555179777966,5.987513214418485 A 173.43117921172075 173.43117921172075 0 0 0 57.409570055888594,11.49818857131092 L 57.341789410148294,12.495888818911908 A 174.43117921172075 174.43117921172075 0 0 1 24.018736134675446,6.953439040707552 Z M 76.72187418849931,12.733260781612131 L 76.67855035815951,11.734199699533235 A 173.43117921172075 173.43117921172075 0 0 0 109.93559775282363,7.036673624146858 L 109.23034826025068,4.120747844359997 L 116.85696615442178,5.877079104774486 L 110.87593040958754,10.924574663862673 L 110.1706809170146,8.008648884075813 A 174.43117921172075 174.43117921172075 0 0 1 76.72187418849931,12.733260781612131"/><text text-anchor="middle" pointer-events="none" font-size="8px" fill="#000000" x="67.03465602974413" y="15.383992281767831" font-family="Helvetica Neue, Helvetica, Arial, sans-serif">trek</text></g><g class="relationship" transform="translate(-26.377801513374717 -32.63890678169115) rotate(281.6494497973089)"><path class="b-outline" fill="#A5ABB6" stroke="none" d="M 21.40063509461097,12.933012701892217 L 21.90063509461097,12.06698729810778 A 88.08265868827208 88.08265868827208 0 0 0 54.17636555025122,23.07849713752097 L 54.042791029866514,24.069535909468854 A 89.08265868827208 89.08265868827208 0 0 1 21.40063509461097,12.933012701892217 Z M 73.44330413452124,24.551433253340065 L 73.35909762557517,23.554984928613123 A 88.08265868827208 88.08265868827208 0 0 0 106.14172617362387,14.159486492165078 L 104.77256580766084,11.490142023521887 L 112.59838999478514,11.409669716358556 L 107.96727332824122,17.718612450355998 L 106.5981129622782,15.049267981712807 A 89.08265868827208 89.08265868827208 0 0 1 73.44330413452124,24.551433253340065"/><text text-anchor="middle" pointer-events="none" font-size="8px" fill="#000000" x="63.742301744153345" y="27.34051097782131" font-family="Helvetica Neue, Helvetica, Arial, sans-serif">trek</text></g><g class="relationship" transform="translate(0.8501246529855029 -164.7042506898202) rotate(518.3351422589826)"><path class="b-outline" fill="#A5ABB6" stroke="none" d="M 24.018736134675446,-6.953439040707552 L 24.277555179777966,-5.987513214418485 A 243.32927489245276 243.32927489245276 0 0 1 61.716185415712886,-12.934737665823633 L 61.6112263212985,-13.929214205768005 A 244.32927489245276 244.32927489245276 0 0 0 24.018736134675446,-6.953439040707552 Z M 108.09866869015765,-14.38811858398742 L 108.01336224070988,-13.391763823029976 A 243.32927489245276 243.32927489245276 0 0 1 145.5818433064728,-7.184977864687686 L 144.86274317872218,-4.2724368767754015 L 152.49762229955988,-5.992501064588327 L 146.54064347680693,-11.068365848570732 L 145.82154334905633,-8.155824860658447 A 244.32927489245276 244.32927489245276 0 0 0 108.09866869015765,-14.38811858398742"/><text text-anchor="middle" pointer-events="none" font-size="8px" fill="#000000" x="84.84894350063034" y="-11.766877722140151" transform="rotate(180 84.84894350063034 -14.766877722140151)" font-family="Helvetica Neue, Helvetica, Arial, sans-serif">twowheeler</text></g><g class="relationship" transform="translate(-163.4315798024044 -99.44531073250401) rotate(426.2413238894579)"><path class="b-outline" fill="#A5ABB6" stroke="none" d="M 24.018736134675446,-6.953439040707552 L 24.277555179777966,-5.987513214418485 A 203.6833140893052 203.6833140893052 0 0 1 51.62552278575299,-11.34178986081659 L 51.50097083920123,-12.334002949124823 A 204.6833140893052 204.6833140893052 0 0 0 24.018736134675446,-6.953439040707552 Z M 97.97629747483445,-12.849624728101475 L 97.87378974706729,-11.85489252004345 A 203.6833140893052 203.6833140893052 0 0 1 125.33381745375135,-7.108684672533363 L 124.6218424699262,-4.194393742923355 L 132.25249212014558,-5.933124865209661 L 126.28311743218491,-10.994405912013374 L 125.57114244835975,-8.080114982403366 A 204.6833140893052 204.6833140893052 0 0 0 97.97629747483445,-12.849624728101475"/><text text-anchor="middle" pointer-events="none" font-size="8px" fill="#000000" x="74.72949809283959" y="-10.415288688125486" font-family="Helvetica Neue, Helvetica, Arial, sans-serif">twowheeler</text></g><g class="relationship" transform="translate(-100.36462194789131 43.82639791357769) rotate(370.07013595112346)"><path class="b-outline" fill="#A5ABB6" stroke="none" d="M 24.018736134675446,6.953439040707552 L 24.277555179777966,5.987513214418485 A 205.37130596815112 205.37130596815112 0 0 0 52.05412212809577,11.411412520958095 L 51.9305535592824,12.403748557188464 A 206.37130596815112 206.37130596815112 0 0 1 24.018736134675446,6.953439040707552 Z M 98.40661833788184,12.916677728762096 L 98.30498086576542,11.921856225043086 A 205.37130596815112 205.37130596815112 0 0 0 126.19448836368001,7.112310857170223 L 125.48217471813115,4.198102685064994 L 133.11302637285036,5.935947046240437 L 127.14423989107848,10.997921753310528 L 126.43192624552962,8.083713581205298 A 206.37130596815112 206.37130596815112 0 0 1 98.40661833788184,12.916677728762096"/><text text-anchor="middle" pointer-events="none" font-size="8px" fill="#000000" x="75.1596175259115" y="16.472834097487294" font-family="Helvetica Neue, Helvetica, Arial, sans-serif">twowheeler</text></g><g class="relationship" transform="translate(-100.36462194789131 43.82639791357769) rotate(370.07013595112346)"><path class="b-outline" fill="#A5ABB6" stroke="none" d="M 24.018736134675446,-6.953439040707552 L 24.277555179777966,-5.987513214418485 A 205.37130596815112 205.37130596815112 0 0 1 65.52727756246279,-12.64006647704386 L 65.46931287813976,-13.638385111234044 A 206.37130596815112 206.37130596815112 0 0 0 24.018736134675446,-6.953439040707552 Z M 84.84390812047442,-13.85221119858818 L 84.80799059015794,-12.85285644124923 A 205.37130596815112 205.37130596815112 0 0 1 126.19448836368001,-7.112310857170223 L 125.48217471813115,-4.198102685064994 L 133.11302637285036,-5.935947046240437 L 127.14423989107848,-10.997921753310528 L 126.43192624552962,-8.083713581205298 A 206.37130596815112 206.37130596815112 0 0 0 84.84390812047442,-13.85221119858818"/><text text-anchor="middle" pointer-events="none" font-size="8px" fill="#000000" x="75.15961752591151" y="-10.472834097487294" font-family="Helvetica Neue, Helvetica, Arial, sans-serif">trek</text></g><g class="relationship" transform="translate(-163.4315798024044 -99.44531073250401) rotate(426.2413238894579)"><path class="b-outline" fill="#A5ABB6" stroke="none" d="M 24.018736134675446,6.953439040707552 L 24.277555179777966,5.987513214418485 A 203.6833140893052 203.6833140893052 0 0 0 65.09748010822182,12.58009780131485 L 65.03906984530627,13.578390464408272 A 204.6833140893052 204.6833140893052 0 0 1 24.018736134675446,6.953439040707552 Z M 84.41392244393066,13.79334529501412 L 84.37767500265167,12.794002449439745 A 203.6833140893052 203.6833140893052 0 0 0 125.33381745375135,7.108684672533363 L 124.6218424699262,4.194393742923355 L 132.25249212014558,5.933124865209661 L 126.28311743218491,10.994405912013374 L 125.57114244835975,8.080114982403366 A 204.6833140893052 204.6833140893052 0 0 1 84.41392244393066,13.79334529501412"/><text text-anchor="middle" pointer-events="none" font-size="8px" fill="#000000" x="74.72949809283958" y="16.415288688125486" font-family="Helvetica Neue, Helvetica, Arial, sans-serif">trek</text></g><g class="relationship" transform="translate(0.8501246529855029 -164.7042506898202) rotate(518.3351422589826)"><path class="b-outline" fill="#A5ABB6" stroke="none" d="M 24.018736134675446,6.953439040707552 L 24.277555179777966,5.987513214418485 A 243.32927489245276 243.32927489245276 0 0 0 75.21062127264616,13.98044648414583 L 75.16111968889464,14.979220529266172 A 244.32927489245276 244.32927489245276 0 0 1 24.018736134675446,6.953439040707552 Z M 94.53068746915756,15.170428713791637 L 94.50091256101595,14.170872084657901 A 243.32927489245276 243.32927489245276 0 0 0 145.5818433064728,7.184977864687686 L 144.86274317872218,4.2724368767754015 L 152.49762229955988,5.992501064588327 L 146.54064347680693,11.068365848570732 L 145.82154334905633,8.155824860658447 A 244.32927489245276 244.32927489245276 0 0 1 94.53068746915756,15.170428713791637"/><text text-anchor="middle" pointer-events="none" font-size="8px" fill="#000000" x="84.84894350063045" y="17.76687772214015" transform="rotate(180 84.84894350063045 14.766877722140151)" font-family="Helvetica Neue, Helvetica, Arial, sans-serif">trek</text></g><g class="relationship" transform="translate(0.8501246529855029 -164.7042506898202) rotate(380.0010096568966)"><path class="b-outline" fill="#A5ABB6" stroke="none" d="M 25 0.5 L 60.847907973185016 0.5 L 60.847907973185016 -0.5 L 25 -0.5 Z M 80.18384547318502 0.5 L 116.03175344637003 0.5 L 116.03175344637003 3.5 L 123.03175344637003 0 L 116.03175344637003 -3.5 L 116.03175344637003 -0.5 L 80.18384547318502 -0.5 Z"/><text text-anchor="middle" pointer-events="none" font-size="8px" fill="#000000" x="70.51587672318502" y="3" font-family="Helvetica Neue, Helvetica, Arial, sans-serif">trek</text></g><g class="relationship" transform="translate(-26.377801513374717 -32.63890678169115) rotate(281.6494497973089)"><path class="b-outline" fill="#A5ABB6" stroke="none" d="M 25 0.5 L 52.91560424173923 0.5 L 52.91560424173923 -0.5 L 25 -0.5 Z M 74.92732299173923 0.5 L 102.84292723347846 0.5 L 102.84292723347846 3.5 L 109.84292723347846 0 L 102.84292723347846 -3.5 L 102.84292723347846 -0.5 L 74.92732299173923 -0.5 Z"/><text text-anchor="middle" pointer-events="none" font-size="8px" fill="#000000" x="63.92146361673923" y="3" font-family="Helvetica Neue, Helvetica, Arial, sans-serif">road</text></g><g class="relationship" transform="translate(-26.377801513374717 -32.63890678169115) rotate(281.6494497973089)"><path class="b-outline" fill="#A5ABB6" stroke="none" d="M 21.40063509461097,-12.933012701892217 L 21.90063509461097,-12.06698729810778 A 88.08265868827208 88.08265868827208 0 0 1 33.82347289248747,-17.80319734669483 L 33.45883254188307,-18.73434578529691 A 89.08265868827208 89.08265868827208 0 0 0 21.40063509461097,-12.933012701892217 Z M 94.26676037094633,-20.244778975855525 L 93.9487995427753,-19.296675125136204 A 88.08265868827208 88.08265868827208 0 0 1 106.14172617362387,-14.159486492165078 L 104.77256580766084,-11.490142023521887 L 112.59838999478514,-11.409669716358556 L 107.96727332824122,-17.718612450355998 L 106.5981129622782,-15.049267981712807 A 89.08265868827208 89.08265868827208 0 0 0 94.26676037094633,-20.244778975855525"/><text text-anchor="middle" pointer-events="none" font-size="8px" fill="#000000" x="63.74230174415333" y="-21.34051097782131" font-family="Helvetica Neue, Helvetica, Arial, sans-serif">PublicTransport</text></g><g class="relationship" transform="translate(0.8501246529855029 -164.7042506898202) rotate(412.31765950460965)"><path class="b-outline" fill="#A5ABB6" stroke="none" d="M 25 0.5 L 79.41156613573324 0.5 L 79.41156613573324 -0.5 L 25 -0.5 Z M 98.74750363573324 0.5 L 153.15906977146648 0.5 L 153.15906977146648 3.5 L 160.15906977146648 0 L 153.15906977146648 -3.5 L 153.15906977146648 -0.5 L 98.74750363573324 -0.5 Z"/><text text-anchor="middle" pointer-events="none" font-size="8px" fill="#000000" x="89.07953488573324" y="3" font-family="Helvetica Neue, Helvetica, Arial, sans-serif">trek</text></g><g class="relationship" transform="translate(-163.4315798024044 -99.44531073250401) rotate(473.1867952652304)"><path class="b-outline" fill="#A5ABB6" stroke="none" d="M 24.018736134675446,-6.953439040707552 L 24.277555179777966,-5.987513214418485 A 235.4876503759601 235.4876503759601 0 0 1 59.71676442538279,-12.625810688809594 L 59.60843823707775,-13.619926093039538 A 236.4876503759601 236.4876503759601 0 0 0 24.018736134675446,-6.953439040707552 Z M 106.09418418147993,-14.089055609283946 L 106.0059430400724,-13.09295646714844 A 235.4876503759601 235.4876503759601 0 0 1 141.57190673402403,-7.171236123128055 L 140.85408994838096,-4.258378580739645 L 148.48821046387081,-5.981806547025618 L 142.5289957815481,-11.055046179645935 L 141.81117899590504,-8.142188637257524 A 236.4876503759601 236.4876503759601 0 0 0 106.09418418147993,-14.089055609283946"/><text text-anchor="middle" pointer-events="none" font-size="8px" fill="#000000" x="82.84480139732094" y="-11.499543985408735" transform="rotate(180 82.84480139732094 -14.499543985408735)" font-family="Helvetica Neue, Helvetica, Arial, sans-serif">twowheeler</text></g><g class="relationship" transform="translate(-231.45318326643616 59.36205107041383) rotate(353.2412502973607)"><path class="b-outline" fill="#A5ABB6" stroke="none" d="M 21.40063509461097,12.933012701892217 L 21.90063509461097,12.06698729810778 A 85.18207558022031 85.18207558022031 0 0 0 39.604340753644806,19.762517066623673 L 39.31217445032858,20.718884595979702 A 86.18207558022031 86.18207558022031 0 0 1 21.40063509461097,12.933012701892217 Z M 85.46276410619816,21.888793114617258 L 85.2194293863009,20.918850737930626 A 85.18207558022031 85.18207558022031 0 0 0 103.29030622604436,14.130199714152479 L 101.92386969311023,11.459459891282616 L 109.74977190156307,11.38697110778447 L 105.11222160328988,17.691186144645627 L 103.74578507035575,15.020446321775765 A 86.18207558022031 86.18207558022031 0 0 1 85.46276410619816,21.888793114617258"/><text text-anchor="middle" pointer-events="none" font-size="8px" fill="#000000" x="62.320346395320286" y="26.951704545543024" font-family="Helvetica Neue, Helvetica, Arial, sans-serif">twowheeler</text></g><g class="relationship" transform="translate(-231.45318326643616 59.36205107041383) rotate(353.2412502973607)"><path class="b-outline" fill="#A5ABB6" stroke="none" d="M 25 0.5 L 51.49710917107262 0.5 L 51.49710917107262 -0.5 L 25 -0.5 Z M 73.50882792107262 0.5 L 100.00593709214525 0.5 L 100.00593709214525 3.5 L 107.00593709214525 0 L 100.00593709214525 -3.5 L 100.00593709214525 -0.5 L 73.50882792107262 -0.5 Z"/><text text-anchor="middle" pointer-events="none" font-size="8px" fill="#000000" x="62.50296854607262" y="3" font-family="Helvetica Neue, Helvetica, Arial, sans-serif">road</text></g><g class="relationship" transform="translate(-231.45318326643616 59.36205107041383) rotate(353.2412502973607)"><path class="b-outline" fill="#A5ABB6" stroke="none" d="M 21.40063509461097,-12.933012701892217 L 21.90063509461097,-12.06698729810778 A 85.18207558022031 85.18207558022031 0 0 1 52.75865606183657,-22.66729652297657 L 52.620915618874065,-23.657764882073664 A 86.18207558022031 86.18207558022031 0 0 0 21.40063509461097,-12.933012701892217 Z M 72.02221227951259,-24.149583998690503 L 71.93483286396601,-23.153408894736017 A 85.18207558022031 85.18207558022031 0 0 1 103.29030622604436,-14.130199714152479 L 101.92386969311023,-11.459459891282616 L 109.74977190156307,-11.38697110778447 L 105.11222160328988,-17.691186144645627 L 103.74578507035575,-15.020446321775765 A 86.18207558022031 86.18207558022031 0 0 0 72.02221227951259,-24.149583998690503"/><text text-anchor="middle" pointer-events="none" font-size="8px" fill="#000000" x="62.320346395320286" y="-20.951704545543024" font-family="Helvetica Neue, Helvetica, Arial, sans-serif">trek</text></g><g class="relationship" transform="translate(-163.4315798024044 -99.44531073250401) rotate(473.1867952652304)"><path class="b-outline" fill="#A5ABB6" stroke="none" d="M 24.018736134675446,6.953439040707552 L 24.277555179777966,5.987513214418485 A 235.4876503759601 235.4876503759601 0 0 0 73.20754595484816,13.704658257622867 L 73.15650846727935,14.703354995808525 A 236.4876503759601 236.4876503759601 0 0 1 24.018736134675446,6.953439040707552 Z M 92.52700782989353,14.898840145304973 L 92.4961361804236,13.899316788269715 A 235.4876503759601 235.4876503759601 0 0 0 141.57190673402403,7.171236123128055 L 140.85408994838096,4.258378580739645 L 148.48821046387081,5.981806547025618 L 142.5289957815481,11.055046179645935 L 141.81117899590504,8.142188637257524 A 236.4876503759601 236.4876503759601 0 0 1 92.52700782989353,14.898840145304973"/><text text-anchor="middle" pointer-events="none" font-size="8px" fill="#000000" x="82.84480139732104" y="17.499543985408735" transform="rotate(180 82.84480139732104 14.499543985408735)" font-family="Helvetica Neue, Helvetica, Arial, sans-serif">trek</text></g><g class="relationship" transform="translate(-231.45318326643616 59.36205107041383) rotate(392.86275040013345)"><path class="b-outline" fill="#A5ABB6" stroke="none" d="M 25 0.5 L 69.55889463916492 0.5 L 69.55889463916492 -0.5 L 25 -0.5 Z M 88.89483213916492 0.5 L 133.45372677832984 0.5 L 133.45372677832984 3.5 L 140.45372677832984 0 L 133.45372677832984 -3.5 L 133.45372677832984 -0.5 L 88.89483213916492 -0.5 Z"/><text text-anchor="middle" pointer-events="none" font-size="8px" fill="#000000" x="79.22686338916492" y="3" font-family="Helvetica Neue, Helvetica, Arial, sans-serif">trek</text></g><g class="relationship" transform="translate(-92.4765497921801 149.14195446198863) rotate(332.12546363345984)"><path class="b-outline" fill="#A5ABB6" stroke="none" d="M 25 0.5 L 70.02752186626584 0.5 L 70.02752186626584 -0.5 L 25 -0.5 Z M 89.36345936626584 0.5 L 134.3909812325317 0.5 L 134.3909812325317 3.5 L 141.3909812325317 0 L 134.3909812325317 -3.5 L 134.3909812325317 -0.5 L 89.36345936626584 -0.5 Z"/><text text-anchor="middle" pointer-events="none" font-size="8px" fill="#000000" x="79.69549061626584" y="3" font-family="Helvetica Neue, Helvetica, Arial, sans-serif">trek</text></g></g><g class="layer nodes"><g class="node" aria-label="graph-node1" transform="translate(-26.377801513374717,-32.63890678169115)"><circle class="b-outline" cx="0" cy="0" r="25" fill="#57C7E3" stroke="#23b3d7" stroke-width="2px"/><text class="caption" text-anchor="middle" pointer-events="none" x="0" y="5" font-size="10px" fill="#2A2C34" font-family="Helvetica Neue, Helvetica, Arial, sans-serif"> Darjeeling</text></g><g class="node" aria-label="graph-node3" transform="translate(54.608668615439335,71.34801407131556)"><circle class="b-outline" cx="0" cy="0" r="25" fill="#D9C8AE" stroke="#c0a378" stroke-width="2px"/><text class="caption" text-anchor="middle" pointer-events="none" x="0" y="5" font-size="10px" fill="#2A2C34" font-family="Helvetica Neue, Helvetica, Arial, sans-serif"> Sandakp…</text></g><g class="node" aria-label="graph-node6" transform="translate(114.0347427769422,-18.16714501767693)"><circle class="b-outline" cx="0" cy="0" r="25" fill="#F16667" stroke="#eb2728" stroke-width="2px"/><text class="caption" text-anchor="middle" pointer-events="none" x="0" y="5" font-size="10px" fill="#FFFFFF" font-family="Helvetica Neue, Helvetica, Arial, sans-serif"> Tumbling</text></g><g class="node" aria-label="graph-node7" transform="translate(264.14074521968365,-38.25355447324291)"><circle class="b-outline" cx="0" cy="0" r="25" fill="#F16667" stroke="#eb2728" stroke-width="2px"/><text class="caption" text-anchor="middle" pointer-events="none" x="0" y="5" font-size="10px" fill="#FFFFFF" font-family="Helvetica Neue, Helvetica, Arial, sans-serif"> Gairibus</text></g><g class="node" aria-label="graph-node2" transform="translate(139.95357879611748,-114.0719578930639)"><circle class="b-outline" cx="0" cy="0" r="25" fill="#F16667" stroke="#eb2728" stroke-width="2px"/><text class="caption" text-anchor="middle" pointer-events="none" x="0" y="5" font-size="10px" fill="#FFFFFF" font-family="Helvetica Neue, Helvetica, Arial, sans-serif"> BhikeBh…</text></g><g class="node" aria-label="graph-node0" transform="translate(0.8501246529855029,-164.7042506898202)"><circle class="b-outline" cx="0" cy="0" r="25" fill="#57C7E3" stroke="#23b3d7" stroke-width="2px"/><text class="caption" text-anchor="middle" pointer-events="none" x="0" y="5" font-size="10px" fill="#2A2C34" font-family="Helvetica Neue, Helvetica, Arial, sans-serif"> Rimbik</text></g><g class="node" aria-label="graph-node4" transform="translate(-163.4315798024044,-99.44531073250401)"><circle class="b-outline" cx="0" cy="0" r="25" fill="#F16667" stroke="#eb2728" stroke-width="2px"/><text class="caption" text-anchor="middle" pointer-events="none" x="0" y="5" font-size="10px" fill="#FFFFFF" font-family="Helvetica Neue, Helvetica, Arial, sans-serif"> Sirikhola</text></g><g class="node" aria-label="graph-node5" transform="translate(-100.36462194789131,43.82639791357769)"><circle class="b-outline" cx="0" cy="0" r="25" fill="#F16667" stroke="#eb2728" stroke-width="2px"/><text class="caption" text-anchor="middle" pointer-events="none" x="0" y="5" font-size="10px" fill="#FFFFFF" font-family="Helvetica Neue, Helvetica, Arial, sans-serif"> Gurdum</text></g><g class="node" aria-label="graph-node8" transform="translate(-231.45318326643616,59.36205107041383)"><circle class="b-outline" cx="0" cy="0" r="25" fill="#F16667" stroke="#eb2728" stroke-width="2px"/><text class="caption" text-anchor="middle" pointer-events="none" x="0" y="5" font-size="10px" fill="#FFFFFF" font-family="Helvetica Neue, Helvetica, Arial, sans-serif"> Rammam</text></g><g class="node" aria-label="graph-node9" transform="translate(-92.4765497921801,149.14195446198863)"><circle class="b-outline" cx="0" cy="0" r="25" fill="#D9C8AE" stroke="#c0a378" stroke-width="2px"/><text class="caption" text-anchor="middle" pointer-events="none" x="0" y="5" font-size="10px" fill="#2A2C34" font-family="Helvetica Neue, Helvetica, Arial, sans-serif"> Sabargr…</text></g></g></svg>