<svg xmlns="http://www.w3.org/2000/svg" width="211.29501342773438" height="211.62155151367188" viewBox="-145.86053466796875 -145.42791748046875 211.29501342773438 211.62155151367188"><title>Neo4j Graph Visualization</title><desc>Created using Neo4j (http://www.neo4j.com/)</desc><g class="layer relationships"><g class="relationship" transform="translate(-33.10874368210194 37.19362840214492) rotate(275.1163047945836)"><path class="b-outline" fill="#A5ABB6" stroke="none" d="M 21.40063509461097,12.933012701892217 L 21.90063509461097,12.06698729810778 A 107.84783906846643 107.84783906846643 0 0 0 63.871401587718125,25.85140627292732 L 63.760568091707725,26.845245261980423 A 108.84783906846643 108.84783906846643 0 0 1 21.40063509461097,12.933012701892217 Z M 83.15534648060486,27.26871671260055 L 83.08799749219592,26.270987233352642 A 107.84783906846643 107.84783906846643 0 0 0 125.62042454407964,14.331636515307665 L 124.23525437251163,11.670564626801406 L 132.0604539791889,11.543084763066693 L 127.46731810617032,17.879732366649343 L 126.08214793460232,15.218660478143082 A 108.84783906846643 108.84783906846643 0 0 1 83.15534648060486,27.26871671260055"/><text text-anchor="middle" pointer-events="none" font-size="8px" fill="#000000" x="73.45941888448738" y="29.990040522511762" font-family="Helvetica Neue, Helvetica, Arial, sans-serif">trek</text></g><g class="relationship selected" transform="translate(-19.35432119738547 -116.42790629458071) rotate(494.38117264812195)"><path class="b-outline" fill="#A5ABB6" stroke="none" d="M 25 0.5 L 56.53623167562807 0.5 L 56.53623167562807 -0.5 L 25 -0.5 Z M 75.87216917562807 0.5 L 107.40840085125615 0.5 L 107.40840085125615 3.5 L 114.40840085125615 0 L 107.40840085125615 -3.5 L 107.40840085125615 -0.5 L 75.87216917562807 -0.5 Z"/><text text-anchor="middle" pointer-events="none" font-size="8px" fill="#000000" x="66.20420042562807" y="3" transform="rotate(180 66.20420042562807 0)" font-family="Helvetica Neue, Helvetica, Arial, sans-serif">trek</text></g><g class="relationship" transform="translate(-116.86053373089332 -16.7923667252337) rotate(353.6589682773191)"><path class="b-outline" fill="#A5ABB6" stroke="none" d="M 25 0.5 L 63.951342310408776 0.5 L 63.951342310408776 -0.5 L 25 -0.5 Z M 83.28727981040878 0.5 L 122.23862212081755 0.5 L 122.23862212081755 3.5 L 129.23862212081755 0 L 122.23862212081755 -3.5 L 122.23862212081755 -0.5 L 83.28727981040878 -0.5 Z"/><text text-anchor="middle" pointer-events="none" font-size="8px" fill="#000000" x="73.61931106040878" y="3" font-family="Helvetica Neue, Helvetica, Arial, sans-serif">trek</text></g><g class="relationship" transform="translate(-33.10874368210194 37.19362840214492) rotate(275.1163047945836)"><path class="b-outline" fill="#A5ABB6" stroke="none" d="M 25 0.5 L 62.61216715003718 0.5 L 62.61216715003718 -0.5 L 25 -0.5 Z M 84.62388590003718 0.5 L 122.23605305007436 0.5 L 122.23605305007436 3.5 L 129.23605305007436 0 L 122.23605305007436 -3.5 L 122.23605305007436 -0.5 L 84.62388590003718 -0.5 Z"/><text text-anchor="middle" pointer-events="none" font-size="8px" fill="#000000" x="73.61802652503718" y="3" font-family="Helvetica Neue, Helvetica, Arial, sans-serif">road</text></g><g class="relationship" transform="translate(-33.10874368210194 37.19362840214492) rotate(275.1163047945836)"><path class="b-outline" fill="#A5ABB6" stroke="none" d="M 21.40063509461097,-12.933012701892217 L 21.90063509461097,-12.06698729810778 A 107.84783906846643 107.84783906846643 0 0 1 43.26534363463247,-21.48365086132017 L 42.96344411327497,-22.436990611359008 A 108.84783906846643 108.84783906846643 0 0 0 21.40063509461097,-12.933012701892217 Z M 104.1250609998619,-23.77241183174594 L 103.86506037317774,-22.806803384121423 A 107.84783906846643 107.84783906846643 0 0 1 125.62042454407964,-14.331636515307665 L 124.23525437251163,-11.670564626801406 L 132.0604539791889,-11.543084763066693 L 127.46731810617032,-17.879732366649343 L 126.08214793460232,-15.218660478143082 A 108.84783906846643 108.84783906846643 0 0 0 104.1250609998619,-23.77241183174594"/><text text-anchor="middle" pointer-events="none" font-size="8px" fill="#000000" x="73.45941888448738" y="-23.990040522511762" font-family="Helvetica Neue, Helvetica, Arial, sans-serif">PublicTransport</text></g></g><g class="layer nodes"><g class="node" aria-label="graph-node1" transform="translate(-33.10874368210194,37.19362840214492)"><circle class="b-outline" cx="0" cy="0" r="25" fill="#57C7E3" stroke="#23b3d7" stroke-width="2px"/><text class="caption" text-anchor="middle" pointer-events="none" x="0" y="5" font-size="10px" fill="#2A2C34" font-family="Helvetica Neue, Helvetica, Arial, sans-serif"> Darjeeling</text></g><g class="node" aria-label="graph-node3" transform="translate(36.434474329905385,-33.827420507597154)"><circle class="b-outline" cx="0" cy="0" r="25" fill="#D9C8AE" stroke="#c0a378" stroke-width="2px"/><text class="caption" text-anchor="middle" pointer-events="none" x="0" y="5" font-size="10px" fill="#2A2C34" font-family="Helvetica Neue, Helvetica, Arial, sans-serif"> Sandakp…</text></g><g class="node" aria-label="graph-node0" transform="translate(-19.35432119738547,-116.42790629458071)"><circle class="b-outline" cx="0" cy="0" r="25" fill="#57C7E3" stroke="#23b3d7" stroke-width="2px"/><text class="caption" text-anchor="middle" pointer-events="none" x="0" y="5" font-size="10px" fill="#2A2C34" font-family="Helvetica Neue, Helvetica, Arial, sans-serif"> Rimbik</text></g><g class="node" aria-label="graph-node2" transform="translate(-116.86053373089332,-16.7923667252337)"><circle class="b-outline" cx="0" cy="0" r="25" fill="#F16667" stroke="#eb2728" stroke-width="2px"/><text class="caption" text-anchor="middle" pointer-events="none" x="0" y="5" font-size="10px" fill="#FFFFFF" font-family="Helvetica Neue, Helvetica, Arial, sans-serif"> BhikeBh…</text></g></g></svg>