<svg xmlns="http://www.w3.org/2000/svg" width="239.81228637695312" height="257.7750549316406" viewBox="-148.73773193359375 -171.11219787597656 239.81228637695312 257.7750549316406"><title>Neo4j Graph Visualization</title><desc>Created using Neo4j (http://www.neo4j.com/)</desc><g class="layer relationships"><g class="relationship" transform="translate(19.128627782770053 -96.6615478221343) rotate(461.91749939680994)"><path class="b-outline" fill="#A5ABB6" stroke="none" d="M 25 0.5 L 58.13934215160636 0.5 L 58.13934215160636 -0.5 L 25 -0.5 Z M 92.58465465160636 0.5 L 125.72399680321271 0.5 L 125.72399680321271 3.5 L 132.7239968032127 0 L 125.72399680321271 -3.5 L 125.72399680321271 -0.5 L 92.58465465160636 -0.5 Z"/><text text-anchor="middle" pointer-events="none" font-size="8px" fill="#000000" x="75.36199840160636" y="3" transform="rotate(180 75.36199840160636 0)" font-family="Helvetica Neue, Helvetica, Arial, sans-serif">ORIGIN</text></g><g class="relationship" transform="translate(19.128627782770053 -96.6615478221343) rotate(198.1231571858716)"><path class="b-outline" fill="#A5ABB6" stroke="none" d="M 25 0.5 L 39.963805693962755 0.5 L 39.963805693962755 -0.5 L 25 -0.5 Z M 99.15130569396275 0.5 L 114.11511138792551 0.5 L 114.11511138792551 3.5 L 121.11511138792551 0 L 114.11511138792551 -3.5 L 114.11511138792551 -0.5 L 99.15130569396275 -0.5 Z"/><text text-anchor="middle" pointer-events="none" font-size="8px" fill="#000000" x="69.55755569396275" y="3" transform="rotate(180 69.55755569396275 0)" font-family="Helvetica Neue, Helvetica, Arial, sans-serif">DESTINATION</text></g><g class="relationship" transform="translate(-94.9911886534632 0.4730783242745638) rotate(260.15404806482695)"><path class="b-outline" fill="#A5ABB6" stroke="none" d="M 25 0.5 L 51.63574369115787 0.5 L 51.63574369115787 -0.5 L 25 -0.5 Z M 86.08105619115787 0.5 L 112.71679988231574 0.5 L 112.71679988231574 3.5 L 119.71679988231574 0 L 112.71679988231574 -3.5 L 112.71679988231574 -0.5 L 86.08105619115787 -0.5 Z"/><text text-anchor="middle" pointer-events="none" font-size="8px" fill="#000000" x="68.85839994115787" y="3" transform="rotate(180 68.85839994115787 0)" font-family="Helvetica Neue, Helvetica, Arial, sans-serif">ORIGIN</text></g><g class="relationship" transform="translate(-94.9911886534632 0.4730783242745638) rotate(357.3798635910798)"><path class="b-outline" fill="#A5ABB6" stroke="none" d="M 25 0.5 L 45.52131716944254 0.5 L 45.52131716944254 -0.5 L 25 -0.5 Z M 104.70881716944254 0.5 L 125.23013433888508 0.5 L 125.23013433888508 3.5 L 132.23013433888508 0 L 125.23013433888508 -3.5 L 125.23013433888508 -0.5 L 104.70881716944254 -0.5 Z"/><text text-anchor="middle" pointer-events="none" font-size="8px" fill="#000000" x="75.11506716944254" y="3" font-family="Helvetica Neue, Helvetica, Arial, sans-serif">DESTINATION</text></g></g><g class="layer nodes"><g class="node" aria-label="graph-node21" transform="translate(-13.441856097231899,57.662859668717225)"><circle class="b-outline" cx="0" cy="0" r="25" fill="#ECB5C9" stroke="#da7298" stroke-width="2px"/><text class="caption" text-anchor="middle" pointer-events="none" x="0" y="5" font-size="10px" fill="#2A2C34" font-family="Helvetica Neue, Helvetica, Arial, sans-serif"> MSN</text></g><g class="node" aria-label="graph-node68" transform="translate(62.07457186717816,-6.7145510690916765)"><circle class="b-outline" cx="0" cy="0" r="25" fill="#ECB5C9" stroke="#da7298" stroke-width="2px"/><text class="caption" text-anchor="middle" pointer-events="none" x="0" y="5" font-size="10px" fill="#2A2C34" font-family="Helvetica Neue, Helvetica, Arial, sans-serif"> GRR</text></g><g class="node" aria-label="graph-node271" transform="translate(19.128627782770053,-96.6615478221343)"><circle class="b-outline" cx="0" cy="0" r="25" fill="#8DCC93" stroke="#5db665" stroke-width="2px"/><text class="caption" text-anchor="middle" pointer-events="none" x="0" y="5" font-size="10px" fill="#2A2C34" font-family="Helvetica Neue, Helvetica, Arial, sans-serif"> 11/30/20…</text></g><g class="node" aria-label="graph-node7" transform="translate(-119.73772581238806,-142.11219814850918)"><circle class="b-outline" cx="0" cy="0" r="25" fill="#ECB5C9" stroke="#da7298" stroke-width="2px"/><text class="caption" text-anchor="middle" pointer-events="none" x="0" y="5" font-size="10px" fill="#2A2C34" font-family="Helvetica Neue, Helvetica, Arial, sans-serif"> ORD</text></g><g class="node" aria-label="graph-node851" transform="translate(-94.9911886534632,0.4730783242745638)"><circle class="b-outline" cx="0" cy="0" r="25" fill="#8DCC93" stroke="#5db665" stroke-width="2px"/><text class="caption" text-anchor="middle" pointer-events="none" x="0" y="5" font-size="10px" fill="#2A2C34" font-family="Helvetica Neue, Helvetica, Arial, sans-serif"> 11/17/20…</text></g></g></svg>